<svg xmlns="http://www.w3.org/2000/svg" xmlns:xlink="http://www.w3.org/1999/xlink" width="5000" zoomAndPan="magnify" viewBox="0 0 3750 3749.999967" height="5000" preserveAspectRatio="xMidYMid meet" version="1.0"><defs><g/></defs><path fill="#ff4a3f" d="M 1474.96875 49.644531 C 1474.503906 45.105469 1473.738281 40.269531 1472.441406 34.910156 C 1465.347656 42.855469 1467.816406 47.042969 1474.96875 49.644531 Z M 1474.96875 49.644531 " fill-opacity="1" fill-rule="nonzero"/><path fill="#ff4a3f" d="M 2095.566406 33.207031 C 2110.71875 33.320312 2125.871094 33.4375 2125.871094 33.4375 C 2128.730469 34.042969 2130.578125 34.316406 2131.71875 34.40625 C 2132.152344 34.359375 2132.601562 34.289062 2133.035156 34.246094 C 2133.121094 32.253906 2074.839844 15.324219 2073.148438 33.132812 C 2073.699219 33.121094 2074.175781 33.105469 2074.765625 33.074219 C 2080.414062 33.121094 2087.996094 33.164062 2095.566406 33.207031 Z M 2095.566406 33.207031 " fill-opacity="1" fill-rule="nonzero"/><path fill="#ff4a3f" d="M 1804.476562 45.28125 C 1797.558594 42.40625 1789.917969 40.152344 1781.902344 38.738281 C 1788.269531 40.875 1796 43.085938 1804.476562 45.28125 Z M 1804.476562 45.28125 " fill-opacity="1" fill-rule="nonzero"/><path fill="#ff4a3f" d="M 1972.5625 64.027344 C 1960.761719 60.691406 1948.640625 58.105469 1936.105469 56.242188 C 1925.417969 54.742188 1914.46875 53.859375 1903.300781 53.730469 C 1892.167969 54.089844 1880.8125 55.230469 1869.273438 57.210938 C 1869.273438 57.210938 1869.476562 57.542969 1869.765625 58.035156 C 1885.695312 60.300781 1902.304688 62.136719 1919.132812 63.160156 C 1936.984375 64.792969 1954.953125 64.867188 1972.5625 64.027344 Z M 1972.5625 64.027344 " fill-opacity="1" fill-rule="nonzero"/><path fill="#ff4a3f" d="M 1729.136719 48.644531 C 1742.65625 45.640625 1751.65625 43.648438 1751.65625 43.648438 C 1751.65625 43.648438 1743.695312 32.6875 1735.722656 21.722656 C 1727.605469 10.847656 1719.503906 -0.0273438 1719.503906 -0.0273438 C 1652.210938 0.996094 1660.472656 19.355469 1667.519531 38.289062 C 1670.972656 47.707031 1673.992188 57.328125 1667.578125 65.082031 C 1671.707031 63.96875 1675.882812 62.859375 1680.085938 61.761719 C 1697.925781 56.980469 1715.761719 52.214844 1729.136719 48.644531 Z M 1729.136719 48.644531 " fill-opacity="1" fill-rule="nonzero"/><path fill="#ff4a3f" d="M 1667.449219 65.269531 C 1667.492188 65.210938 1667.519531 65.140625 1667.578125 65.082031 C 1654.160156 68.707031 1641.40625 72.390625 1631.394531 75.84375 C 1618.238281 80.074219 1609.46875 82.890625 1609.46875 82.890625 C 1627.121094 81.070312 1639.886719 78.53125 1649.117188 75.394531 C 1658.390625 72.492188 1664.152344 69.226562 1667.449219 65.269531 Z M 1667.449219 65.269531 " fill-opacity="1" fill-rule="nonzero"/><path fill="#ff4a3f" d="M 2797.773438 3425.59375 C 2793.8125 3431.183594 2788.023438 3437.496094 2781.449219 3444.023438 C 2788.339844 3441.929688 2795.042969 3439.328125 2801.382812 3435.542969 Z M 2797.773438 3425.59375 " fill-opacity="1" fill-rule="nonzero"/><path fill="#ff4a3f" d="M 2788.511719 3400.605469 L 2797.773438 3425.609375 C 2805.847656 3413.359375 2806.222656 3404 2788.511719 3400.605469 Z M 2788.511719 3400.605469 " fill-opacity="1" fill-rule="nonzero"/><path fill="#ff4a3f" d="M 2560.140625 3514.507812 C 2541.839844 3533.285156 2522.425781 3550.386719 2522.425781 3550.386719 C 2539.210938 3547.105469 2567.261719 3538.699219 2586.285156 3526.265625 C 2605.394531 3513.902344 2615.15625 3497.738281 2596.367188 3477.777344 C 2596.378906 3477.777344 2578.269531 3496.148438 2560.140625 3514.507812 Z M 2560.140625 3514.507812 " fill-opacity="1" fill-rule="nonzero"/><path fill="#ff4a3f" d="M 3122.457031 2885.402344 L 3105.90625 2874.066406 C 3106.972656 2881.242188 3110.902344 2886.269531 3122.457031 2885.402344 Z M 3122.457031 2885.402344 " fill-opacity="1" fill-rule="nonzero"/><path fill="#ff4a3f" d="M 310.019531 1119.375 C 308.648438 1115.605469 306.570312 1111.777344 303.449219 1107.804688 C 303.433594 1107.792969 305.992188 1112.339844 310.019531 1119.375 Z M 310.019531 1119.375 " fill-opacity="1" fill-rule="nonzero"/><path fill="#ff4a3f" d="M 1890.621094 3559.441406 L 1888.597656 3556.609375 C 1888.425781 3557.78125 1889.160156 3558.703125 1890.621094 3559.441406 Z M 1890.621094 3559.441406 " fill-opacity="1" fill-rule="nonzero"/><path fill="#ff4a3f" d="M 2841.855469 378.710938 C 2846.550781 374.015625 2849.753906 370.808594 2849.753906 370.808594 C 2845.828125 372.816406 2843.414062 375.574219 2841.855469 378.710938 Z M 2841.855469 378.710938 " fill-opacity="1" fill-rule="nonzero"/><path fill="#ff4a3f" d="M 3576.558594 2246.984375 C 3575.460938 2247.085938 3574.507812 2247.085938 3573.453125 2247.171875 C 3573.382812 2248.746094 3573.339844 2250.304688 3573.265625 2251.910156 C 3574.363281 2250.261719 3575.375 2248.675781 3576.558594 2246.984375 Z M 3576.558594 2246.984375 " fill-opacity="1" fill-rule="nonzero"/><path fill="#ff4a3f" d="M 3554.648438 2399.292969 C 3562.015625 2354.777344 3569.929688 2300.859375 3573.179688 2254.421875 C 3573.222656 2253.554688 3573.238281 2252.761719 3573.28125 2251.910156 C 3557.523438 2275.523438 3550.519531 2295.210938 3549.925781 2317.066406 C 3549.332031 2340.40625 3553.101562 2365.738281 3554.648438 2399.292969 Z M 3554.648438 2399.292969 " fill-opacity="1" fill-rule="nonzero"/><path fill="#ff4a3f" d="M 3420.867188 2762.9375 C 3424.40625 2765.824219 3428.378906 2768.699219 3433.074219 2771.574219 C 3432.46875 2760.945312 3427.757812 2759.714844 3420.867188 2762.9375 Z M 3420.867188 2762.9375 " fill-opacity="1" fill-rule="nonzero"/><path fill="#ff4a3f" d="M 3320.222656 2746.816406 C 3320.222656 2746.816406 3332.574219 2729.441406 3344.289062 2711.574219 C 3355.597656 2693.433594 3366.90625 2675.292969 3366.90625 2675.292969 C 3381.742188 2695.992188 3372.597656 2720.878906 3361.535156 2742.890625 C 3350.699219 2765.074219 3340.171875 2785.496094 3355.105469 2801.226562 C 3373.234375 2806.714844 3403.882812 2770.910156 3420.867188 2762.953125 C 3391.128906 2738.757812 3399.882812 2714.523438 3405.628906 2694.835938 C 3412 2672.851562 3413.863281 2657.371094 3353.316406 2654.898438 C 3350.613281 2660.097656 3347.957031 2665.441406 3345.386719 2671.191406 C 3336.503906 2691.28125 3328.601562 2715.289062 3320.222656 2746.816406 Z M 3320.222656 2746.816406 " fill-opacity="1" fill-rule="nonzero"/><path fill="#ff4a3f" d="M 3415.179688 2486.445312 C 3412.101562 2518.769531 3406.324219 2543.726562 3399.261719 2564.625 C 3393.714844 2578.953125 3387.632812 2591.320312 3381.40625 2603.105469 C 3388.140625 2599.363281 3395.246094 2598.339844 3402.554688 2597.296875 C 3421.417969 2594.496094 3442.953125 2591.417969 3458.0625 2534.007812 C 3458.0625 2534.007812 3447.386719 2521.988281 3436.699219 2509.972656 C 3425.9375 2498.199219 3415.179688 2486.445312 3415.179688 2486.445312 Z M 3415.179688 2486.445312 " fill-opacity="1" fill-rule="nonzero"/><path fill="#ff4a3f" d="M 3351.683594 2654.8125 C 3352.261719 2654.828125 3352.738281 2654.871094 3353.316406 2654.898438 C 3360.015625 2641.972656 3366.890625 2630.359375 3373.132812 2618.445312 C 3375.890625 2613.386719 3378.664062 2608.277344 3381.394531 2603.089844 C 3379.3125 2604.246094 3377.277344 2605.617188 3375.269531 2607.378906 C 3366.546875 2614.773438 3359.785156 2628.828125 3351.683594 2654.8125 Z M 3351.683594 2654.8125 " fill-opacity="1" fill-rule="nonzero"/><path fill="#ff4a3f" d="M 3115.105469 3062.914062 C 3122.71875 3054.785156 3129.9375 3045.957031 3136.699219 3036.382812 C 3136.699219 3036.382812 3136.324219 3036.296875 3135.789062 3036.152344 C 3122.917969 3045.8125 3109.875 3056.269531 3097.253906 3067.449219 C 3083.457031 3078.902344 3070.691406 3091.570312 3058.847656 3104.613281 C 3069.550781 3098.621094 3079.949219 3091.875 3090.132812 3084.335938 C 3098.742188 3077.835938 3107.101562 3070.714844 3115.105469 3062.914062 Z M 3115.105469 3062.914062 " fill-opacity="1" fill-rule="nonzero"/><path fill="#ff4a3f" d="M 3190.964844 2999.015625 C 3197.882812 2996.15625 3204.875 2992.34375 3211.546875 2987.679688 C 3205.523438 2990.667969 3198.519531 2994.570312 3190.964844 2999.015625 Z M 3190.964844 2999.015625 " fill-opacity="1" fill-rule="nonzero"/><path fill="#ff4a3f" d="M 3157.789062 3004.027344 C 3143.257812 3000.980469 3136.65625 2989.644531 3144.628906 2965.914062 C 3144.628906 2965.914062 3161.023438 2965.492188 3177.417969 2965.058594 C 3193.984375 2964.367188 3210.550781 2963.6875 3210.550781 2963.6875 C 3210.550781 2963.6875 3210.378906 2955.542969 3210.132812 2943.324219 C 3210.015625 2931.277344 3209.136719 2914.941406 3207.878906 2898.664062 C 3205.609375 2866.195312 3202.59375 2834.835938 3202.59375 2834.835938 C 3203.257812 2857.816406 3195.109375 2876.839844 3183.929688 2893.015625 C 3172.953125 2909.351562 3157.238281 2921.730469 3144.859375 2933.789062 C 3120.03125 2957.925781 3103.058594 2977.164062 3136.539062 3012.710938 C 3136.539062 3012.710938 3123.628906 3015.425781 3110.714844 3018.15625 C 3097.917969 3020.710938 3085.132812 3023.269531 3085.132812 3023.269531 C 3085.132812 3023.269531 3097.988281 3026.605469 3110.828125 3029.941406 C 3121.835938 3032.671875 3132.742188 3035.371094 3135.804688 3036.136719 C 3155.5625 3021.304688 3174.699219 3008.59375 3190.980469 2999.003906 C 3178.859375 3004.015625 3167.046875 3006.007812 3157.789062 3004.027344 Z M 3157.789062 3004.027344 " fill-opacity="1" fill-rule="nonzero"/><path fill="#ff4a3f" d="M 2993.660156 3213.375 C 2982.871094 3224.003906 2972.082031 3234.632812 2972.082031 3234.632812 C 2969.640625 3236.238281 2968.152344 3237.335938 2967.273438 3238.074219 C 2966.984375 3238.40625 2966.722656 3238.78125 2966.433594 3239.113281 C 2967.804688 3240.570312 3020.960938 3211.335938 3009.5625 3197.558594 C 3009.203125 3197.960938 3008.871094 3198.308594 3008.464844 3198.742188 C 3004.4375 3202.730469 2999.035156 3208.042969 2993.660156 3213.375 Z M 2993.660156 3213.375 " fill-opacity="1" fill-rule="nonzero"/><path fill="#ff4a3f" d="M 3302.242188 2834.535156 C 3291.046875 2848.296875 3283.8125 2859.132812 3279.507812 2867.871094 C 3275 2876.492188 3273.253906 2882.863281 3273.714844 2887.988281 C 3273.714844 2888.0625 3273.773438 2888.121094 3273.773438 2888.191406 C 3280.691406 2876.144531 3287.105469 2864.53125 3291.726562 2855.03125 C 3298.023438 2842.738281 3302.242188 2834.535156 3302.242188 2834.535156 Z M 3302.242188 2834.535156 " fill-opacity="1" fill-rule="nonzero"/><path fill="#ff4a3f" d="M 3292.75 2907.128906 C 3283.636719 2902.910156 3274.726562 2898.230469 3273.773438 2888.191406 C 3271.648438 2891.902344 3269.46875 2895.660156 3267.273438 2899.414062 C 3258.027344 2915.402344 3248.796875 2931.378906 3241.867188 2943.367188 C 3234.414062 2955.035156 3229.472656 2962.820312 3229.472656 2962.820312 C 3229.472656 2962.820312 3242.863281 2964.945312 3256.25 2967.066406 C 3269.683594 2969.019531 3283.089844 2970.980469 3283.089844 2970.980469 C 3329.929688 2922.667969 3311.109375 2915.535156 3292.75 2907.128906 Z M 3292.75 2907.128906 " fill-opacity="1" fill-rule="nonzero"/><path fill="#ff4a3f" d="M 98.273438 1311.113281 C 97.117188 1304.367188 96.742188 1295.804688 96.785156 1286.546875 C 93.390625 1292.902344 90.488281 1299.488281 88.683594 1306.652344 Z M 98.273438 1311.113281 " fill-opacity="1" fill-rule="nonzero"/><path fill="#ff4a3f" d="M 122.496094 1322.25 L 98.273438 1311.113281 C 101.21875 1325.484375 107.574219 1332.375 122.496094 1322.25 Z M 122.496094 1322.25 " fill-opacity="1" fill-rule="nonzero"/><path fill="#ff4a3f" d="M 174.625 1212.855469 C 197.835938 1195.058594 206.964844 1179.445312 171.386719 1151.570312 C 171.386719 1151.570312 160.554688 1170.59375 149.722656 1189.628906 C 144.335938 1199.207031 138.933594 1208.765625 134.902344 1215.945312 C 130.84375 1223.09375 128.273438 1227.960938 128.273438 1227.949219 C 95.039062 1210.847656 78.511719 1202.179688 107.183594 1154.285156 C 87.730469 1159.558594 84.769531 1213.664062 80.808594 1242.320312 L 92.640625 1225.175781 C 97.753906 1240.773438 96.554688 1265.457031 96.785156 1286.546875 C 114.984375 1251.546875 150.933594 1230.300781 174.625 1212.855469 Z M 174.625 1212.855469 " fill-opacity="1" fill-rule="nonzero"/><path fill="#ff4a3f" d="M 203.785156 1131.8125 C 203.785156 1131.8125 203.597656 1106.015625 203.4375 1080.21875 C 203.105469 1054.019531 204.738281 1028.179688 204.738281 1028.179688 C 195.191406 1042.347656 181.296875 1068.128906 176.644531 1090.386719 C 171.863281 1112.660156 176.371094 1130.972656 203.785156 1131.8125 Z M 203.785156 1131.8125 " fill-opacity="1" fill-rule="nonzero"/><path fill="#ff4a3f" d="M 302.785156 1056.503906 C 312.273438 1042.03125 322.269531 1029.105469 321.953125 1012.246094 C 298.164062 1027.296875 298.738281 1017.835938 305.660156 1001.386719 C 312.707031 985.066406 325.910156 961.867188 325.851562 949.171875 C 243.015625 1013.578125 323.292969 1001.949219 302.785156 1056.503906 Z M 302.785156 1056.503906 " fill-opacity="1" fill-rule="nonzero"/><path fill="#ff4a3f" d="M 302.785156 1056.503906 C 298.464844 1063.234375 294.335938 1070.441406 291.980469 1078.601562 C 297.367188 1070.050781 300.386719 1063.046875 302.785156 1056.503906 Z M 302.785156 1056.503906 " fill-opacity="1" fill-rule="nonzero"/><path fill="#ff4a3f" d="M 645.089844 575.054688 L 648.515625 575.632812 C 647.820312 574.664062 646.636719 574.519531 645.089844 575.054688 Z M 645.089844 575.054688 " fill-opacity="1" fill-rule="nonzero"/><path fill="#ff4a3f" d="M 3659.640625 1714.824219 C 3652 1694.171875 3643.320312 1669.789062 3637.457031 1646.335938 C 3631.679688 1622.835938 3630.539062 1599.828125 3640.808594 1580.71875 L 3604.320312 1587.59375 C 3604.121094 1585.066406 3603.859375 1582.539062 3603.644531 1580.007812 C 3600.523438 1536.449219 3598.5 1508.875 3598.746094 1490.214844 C 3598.414062 1470.601562 3599.570312 1460.953125 3601.359375 1452.183594 C 3603.066406 1443.445312 3605.074219 1435.675781 3605.40625 1419.816406 C 3605.578125 1411.886719 3605.304688 1401.921875 3604.351562 1388.761719 C 3602.90625 1375.761719 3600.652344 1359.601562 3597.171875 1339.089844 C 3597.171875 1339.089844 3583.394531 1331.105469 3569.597656 1323.128906 C 3565.726562 1320.949219 3561.972656 1318.8125 3558.417969 1316.804688 C 3556.066406 1307.878906 3553.710938 1298.953125 3551.195312 1290.082031 C 3551.429688 1289.851562 3551.601562 1289.636719 3551.847656 1289.40625 C 3550.316406 1284.972656 3548.640625 1280.507812 3547.050781 1276.074219 C 3522.742188 1193.269531 3491.703125 1113.351562 3454.464844 1037.003906 C 3448.585938 1017.648438 3439.789062 998.007812 3425.808594 979.5625 C 3425.808594 979.5625 3426.113281 980.761719 3426.546875 982.507812 C 3407.871094 947.828125 3387.953125 913.902344 3366.761719 880.882812 C 3369 879.007812 3371.152344 876.738281 3373.074219 873.589844 C 3359.25 853.167969 3343.03125 835.359375 3325.367188 819.671875 C 3197.8125 640.457031 3032.703125 489.839844 2841.582031 379.199219 C 2841.652344 379.027344 2841.796875 378.882812 2841.871094 378.722656 C 2841.738281 378.855469 2841.59375 379 2841.464844 379.128906 C 2826.226562 370.304688 2810.785156 361.78125 2795.214844 353.476562 C 2800.921875 347.109375 2807.246094 340.578125 2813.617188 333.992188 C 2846.375 300.238281 2880.203125 264.027344 2813.921875 235.878906 C 2839.3125 266.902344 2827.324219 294.199219 2804.921875 310.191406 C 2782.257812 326.367188 2750.179688 330.453125 2729.378906 315.460938 C 2729.710938 316.789062 2729.757812 318.539062 2729.65625 320.488281 C 2720.539062 316.167969 2711.382812 311.894531 2702.167969 307.75 C 2724.109375 300.339844 2728.109375 286.402344 2720.152344 272.160156 C 2711.671875 256.863281 2689.804688 241.078125 2664.078125 236.023438 C 2674.59375 240.949219 2683.21875 246.78125 2689.789062 253.28125 C 2696.246094 260.027344 2700.78125 267.164062 2703.410156 274.109375 C 2708.132812 286.601562 2706.414062 298.300781 2699.410156 306.550781 C 2685.558594 300.355469 2671.589844 294.402344 2657.523438 288.609375 C 2654.515625 286.414062 2651.527344 284.277344 2648.507812 282.066406 C 2652.957031 280.261719 2657.898438 276.984375 2663.558594 271.597656 C 2678.957031 245.859375 2652.800781 217.230469 2615.390625 189.789062 C 2596.570312 176.542969 2575.277344 162.980469 2555.476562 149.824219 C 2535.441406 137.414062 2517.054688 124.878906 2504.605469 111.980469 C 2477.824219 108.398438 2463.148438 113.0625 2452.734375 120.503906 C 2442.234375 128.257812 2435.578125 140.144531 2424.179688 154.863281 C 2421.449219 137.359375 2407.714844 122.4375 2393.3125 108.875 C 2378.925781 95.253906 2364.164062 81.589844 2360.222656 63.96875 C 2330.582031 70.109375 2305.882812 70.339844 2283.25 66.640625 C 2260.660156 62.828125 2240.191406 54.871094 2219.351562 48.6875 C 2198.582031 42.203125 2177.609375 35.429688 2154.714844 33.710938 C 2147.707031 33.378906 2140.445312 33.652344 2133.046875 34.261719 C 2133.046875 34.433594 2132.613281 34.492188 2131.734375 34.417969 C 2115.355469 35.90625 2098.066406 39.792969 2079.433594 47.878906 C 2074.578125 41.378906 2072.816406 36.628906 2073.148438 33.148438 C 2068.441406 33.308594 2065.304688 33.40625 2065.304688 33.40625 L 2071.703125 40.644531 C 2051.207031 52.675781 2026.8125 59.277344 2000.65625 61.960938 C 1991.496094 62.929688 1982.078125 63.566406 1972.574219 64.027344 C 1980.910156 66.382812 1989.113281 69.054688 1997.074219 72.332031 C 2002.589844 74.703125 2007.820312 77.375 2013.164062 79.917969 C 1998.183594 81.257812 1979.351562 83.730469 1960.484375 85.925781 C 1933.691406 88.753906 1907.21875 92.871094 1892.050781 95.398438 C 1889.566406 91.152344 1886.316406 85.621094 1883.039062 80.058594 C 1877.203125 70.367188 1871.394531 60.734375 1869.765625 58.019531 C 1845.296875 54.539062 1822.777344 49.988281 1804.476562 45.265625 C 1816.550781 50.292969 1826.332031 57.238281 1831.472656 65.167969 C 1835.242188 70.933594 1836.398438 76.753906 1834.476562 82.445312 C 1830.375 82.660156 1826.273438 82.949219 1822.171875 83.136719 C 1813.445312 83.800781 1804.738281 84.046875 1796.027344 84.507812 C 1794.078125 82.644531 1792.085938 80.753906 1790.0625 78.847656 C 1777.855469 67.625 1765.667969 56.386719 1765.667969 56.386719 C 1765.667969 56.386719 1760.035156 62.265625 1751.570312 71.089844 C 1747.179688 75.570312 1742.109375 81.027344 1736.777344 86.949219 C 1706.9375 88.046875 1677.414062 89.984375 1648.582031 91.09375 C 1611.246094 93.78125 1575.179688 97.566406 1541.800781 103.34375 C 1514.066406 109.078125 1488.285156 115.910156 1465.203125 125.09375 C 1475.226562 116.097656 1489.050781 110.304688 1502.773438 105.769531 C 1526.113281 97.738281 1547.996094 90.734375 1548.558594 69.070312 C 1539.632812 52.371094 1492.617188 56.027344 1474.996094 49.628906 C 1478.910156 87.773438 1455.597656 98.707031 1437.601562 108.570312 C 1419.417969 118.566406 1407.703125 127.480469 1436.300781 162.273438 C 1434.378906 168.238281 1434.582031 173.148438 1438.960938 176.066406 C 1427.808594 179.402344 1417.078125 182.277344 1406.5625 185.570312 C 1401.027344 187.1875 1395.46875 188.847656 1389.878906 190.582031 C 1392.160156 191.234375 1394.574219 191.722656 1397.230469 191.882812 C 1407.789062 192.75 1421.292969 188.316406 1442.339844 177.640625 C 1449.503906 179.921875 1462.660156 179.316406 1485.539062 174.074219 C 1458.515625 200.75 1423.402344 209.878906 1385.039062 210.414062 C 1370.480469 211.339844 1355.445312 210.949219 1340.421875 210.296875 C 1343.65625 208.550781 1346.921875 206.714844 1350.042969 205.183594 C 1364.082031 198.972656 1377.140625 194.539062 1389.878906 190.597656 C 1382.46875 188.488281 1376.707031 184.183594 1370.8125 179.765625 C 1355.503906 168.410156 1338.082031 155.355469 1286.808594 185.265625 C 1286.808594 185.265625 1286.199219 195.738281 1285.464844 208.175781 C 1280.609375 208.101562 1275.628906 207.871094 1270.976562 208 C 1270.976562 208 1273.429688 203.84375 1277.144531 197.601562 C 1280.839844 191.277344 1285.910156 183.128906 1291.097656 175.113281 C 1301.640625 158.921875 1312.199219 142.746094 1312.199219 142.746094 C 1219.195312 174.636719 1112.46875 196.214844 1011.332031 232.714844 C 910.527344 268.578125 815.644531 318.175781 755.34375 389.269531 L 803.65625 403.410156 C 795.625 410.195312 787.496094 416.738281 779.261719 423.050781 C 771.160156 429.566406 763.140625 436.109375 754.964844 442.320312 C 738.660156 454.8125 722.0625 466.527344 705.4375 477.675781 C 673.082031 501.105469 640.253906 522.046875 610.425781 543.179688 C 581.121094 564.875 552.78125 584.546875 530.722656 605.921875 C 508.523438 627.140625 490.714844 648.054688 480.140625 669.488281 C 545.007812 649.800781 536.242188 671.84375 511.210938 702.304688 C 505.273438 710.203125 498.269531 718.667969 491.046875 727.246094 C 488.605469 728.359375 486.09375 729.296875 483.492188 730.078125 L 486.757812 732.304688 C 466.03125 756.699219 444.769531 781.179688 442.183594 794.960938 C 453.96875 785.542969 465.898438 775.070312 477.789062 763.917969 C 485.285156 756.726562 492.578125 749.058594 499.785156 741.199219 L 514.257812 751.09375 C 482.65625 787.5625 463.402344 810.039062 449.246094 823.816406 C 435.625 837.929688 427.96875 843.9375 420.503906 848.863281 C 413.109375 853.84375 406.203125 857.902344 394.75 868.882812 C 389.03125 874.371094 382.152344 881.605469 373.53125 891.585938 C 365.355469 901.796875 355.519531 914.828125 343.472656 931.78125 C 343.472656 931.78125 347.574219 947.179688 351.675781 962.578125 C 353.785156 970.175781 355.894531 977.785156 357.46875 983.476562 C 359.230469 989.195312 360.402344 993.007812 360.402344 993.007812 C 363.765625 998.308594 367.652344 961.175781 377.429688 925.226562 C 386.546875 889 404.570312 856.011719 428.332031 869.777344 C 426.511719 883.164062 423.839844 896.683594 420.574219 910.335938 C 417.554688 924.097656 414.378906 938.226562 410.59375 952.363281 C 406.867188 966.519531 402.765625 980.804688 398.546875 995.175781 C 394.429688 1009.605469 390.964844 1024.453125 387.179688 1039.171875 C 383.496094 1053.933594 379.914062 1068.75 376.679688 1083.542969 C 373.675781 1098.417969 371.625 1113.496094 369.804688 1128.359375 C 368.070312 1143.25 366.914062 1158.027344 366.554688 1172.601562 C 366.351562 1187.21875 367.667969 1201.863281 369.617188 1216.046875 C 369.617188 1216.046875 351.980469 1189.859375 335.398438 1162.722656 C 325.636719 1146.515625 316.101562 1130.007812 310.007812 1119.363281 C 317.691406 1140.433594 300.054688 1159.023438 278.113281 1184.15625 C 264.941406 1198.859375 249.746094 1215.640625 236.589844 1235.734375 C 224.3125 1256.011719 214.171875 1279.671875 210.402344 1307.199219 C 210.402344 1307.199219 223.300781 1285.835938 236.183594 1264.476562 C 242.710938 1253.917969 248.910156 1243.359375 254.09375 1235.617188 C 259.28125 1227.890625 262.746094 1222.75 262.746094 1222.75 C 277.363281 1247.070312 282.59375 1275.046875 280.714844 1305.25 C 278.433594 1335.378906 272.164062 1368.453125 264.40625 1402.875 C 262.429688 1411.480469 260.449219 1420.175781 258.441406 1428.902344 C 256.824219 1437.699219 255.207031 1446.550781 253.589844 1455.40625 C 250.511719 1473.15625 247.78125 1491.007812 246.003906 1508.660156 C 242.855469 1543.972656 245.429688 1578.667969 255.582031 1609.429688 C 258.414062 1576.585938 261.476562 1543.769531 287.9375 1540.824219 C 290.246094 1543.742188 292.007812 1547.195312 293.484375 1550.90625 C 293.382812 1563.226562 294.175781 1565.566406 296.992188 1564.007812 C 299.058594 1577.164062 298.132812 1592.808594 295.304688 1609.214844 C 290.984375 1637.003906 282.867188 1666.988281 274.417969 1689.363281 C 270.964844 1688.710938 267.757812 1687.628906 264.667969 1686.359375 C 261.144531 1664.316406 262.703125 1642.652344 277.839844 1612.738281 C 277.839844 1612.738281 264.636719 1614.890625 251.4375 1617.058594 C 238.21875 1619.382812 225.003906 1621.707031 225.003906 1621.707031 C 225.335938 1626.777344 225.828125 1631.761719 226.332031 1636.742188 C 226.320312 1636.6875 226.289062 1636.644531 226.273438 1636.585938 C 216.148438 1608.707031 214.675781 1573.480469 212.277344 1539.625 C 209.261719 1472.058594 212.234375 1409.835938 172.789062 1419.425781 C 165.886719 1455.1875 166.203125 1490.734375 171.980469 1524.632812 C 178.421875 1558.605469 188.199219 1590.84375 198.917969 1620.695312 C 210.214844 1650.59375 221.25 1678.167969 227.90625 1703.472656 C 235.144531 1728.808594 238.742188 1751.945312 233.308594 1773.511719 C 233.308594 1773.511719 219.167969 1756.4375 205.027344 1739.367188 C 197.980469 1730.613281 190.929688 1721.875 185.644531 1715.300781 C 180.269531 1708.6875 177.066406 1704.210938 177.066406 1704.210938 C 177.066406 1704.210938 177.960938 1708.542969 179.839844 1715.027344 C 181.628906 1721.484375 184.027344 1730.09375 186.425781 1738.699219 C 191.261719 1755.789062 196.101562 1772.859375 196.101562 1772.859375 L 199.582031 1752.59375 C 222.246094 1766.679688 221.03125 1788.199219 217.535156 1813.433594 C 214.332031 1838.5625 207.742188 1867.609375 216.957031 1894.113281 C 216.957031 1894.113281 202.457031 1886.285156 187.941406 1878.472656 C 173.425781 1870.367188 158.921875 1862.28125 158.921875 1862.28125 C 158.921875 1862.28125 159.328125 1868.765625 159.949219 1878.5 C 160.730469 1888.222656 161.074219 1901.234375 162.679688 1914.175781 C 165.566406 1940.074219 168.457031 1965.957031 168.457031 1965.957031 L 181.730469 1950.964844 C 226.609375 2113.152344 253.285156 2250.609375 274.921875 2405.34375 C 274.921875 2405.34375 274.257812 2399.609375 273.246094 2390.988281 C 272.351562 2382.335938 270.691406 2371.039062 270.039062 2359.425781 C 268.453125 2336.449219 266.847656 2313.46875 266.847656 2313.46875 C 279.890625 2317.066406 297.324219 2361.550781 305.628906 2402.238281 C 319.351562 2390.265625 312.765625 2360.308594 309.574219 2332.085938 C 306.453125 2308.757812 303.910156 2287.601562 311.941406 2280.636719 C 319.136719 2321.367188 327.976562 2361.867188 338.460938 2402.023438 C 339.023438 2411.496094 339.386719 2420.796875 339.589844 2430.15625 C 340.035156 2451.679688 341.421875 2473.011719 343.992188 2498.402344 C 345.378906 2511.042969 347.171875 2524.660156 349.886719 2539.566406 C 353.035156 2554.257812 357.035156 2570.273438 362.207031 2588.011719 C 371.8125 2589.125 379.0625 2573.265625 387.976562 2557.433594 C 398.070312 2584.082031 409.003906 2610.457031 420.632812 2636.613281 C 411.808594 2642.796875 398.070312 2642.320312 374.109375 2628.539062 C 414.394531 2664.820312 415.75 2685.96875 418.378906 2704.28125 C 420.992188 2722.292969 425.816406 2736.910156 471.34375 2755.875 C 463.546875 2749.230469 457.8125 2735.074219 452.234375 2720.964844 C 453.464844 2716.933594 455.023438 2714.203125 456.757812 2712.167969 C 475.792969 2749.359375 496.390625 2785.945312 518.664062 2821.796875 C 519.199219 2852.3125 525.222656 2882.90625 550.527344 2922.699219 C 550.527344 2922.699219 558.371094 2929.457031 570.15625 2939.609375 C 581.972656 2949.679688 598.523438 2962.316406 614.671875 2975.113281 C 627.007812 2985.078125 639.546875 2994.640625 650.363281 3002.671875 C 658.742188 3012.582031 667.261719 3022.417969 675.945312 3032.164062 C 671.753906 3035.546875 666.207031 3036.5 666.207031 3036.5 C 681.417969 3048.761719 696.035156 3061.71875 710.492188 3074.890625 C 725.355469 3087.644531 739.859375 3100.785156 754.085938 3114.117188 C 756.425781 3116.386719 758.835938 3118.480469 761.191406 3120.71875 C 764.601562 3123.996094 768.023438 3127.261719 771.460938 3130.511719 C 772.515625 3137.835938 777.082031 3144.984375 787.550781 3150.761719 C 791.785156 3152.929688 795.570312 3154.605469 798.964844 3155.847656 C 799.351562 3156.191406 799.773438 3156.539062 800.160156 3156.898438 C 813.234375 3168.699219 826.277344 3180.355469 838.886719 3192.027344 C 867.183594 3216.539062 895.375 3239.359375 923.050781 3258.855469 C 933.117188 3265.472656 943.042969 3271.554688 952.90625 3277.332031 C 992.859375 3304.917969 1033.808594 3330.441406 1075.636719 3353.808594 C 1075.636719 3354.140625 1075.664062 3354.417969 1075.652344 3354.75 C 1079.132812 3356.4375 1082.800781 3357.953125 1086.3125 3359.617188 C 1104.0625 3369.335938 1121.929688 3378.738281 1139.96875 3387.722656 C 1125.425781 3390.785156 1113.25 3393.355469 1113.25 3393.355469 C 1201.558594 3436.585938 1292.28125 3496.773438 1389.605469 3542.472656 C 1486.234375 3588.386719 1588.410156 3620.410156 1681.328125 3612.769531 L 1657.164062 3568.601562 C 1667.648438 3569.480469 1678.019531 3570.609375 1688.304688 3571.949219 C 1698.632812 3573.0625 1708.929688 3574.101562 1719.113281 3575.503906 C 1739.480469 3578.203125 1759.5 3581.65625 1779.144531 3585.511719 C 1818.574219 3591.839844 1856.605469 3600.246094 1892.644531 3606.382812 C 1928.710938 3611.757812 1962.667969 3617.894531 1993.359375 3618.371094 C 2024.054688 3619.066406 2051.441406 3616.871094 2074.074219 3609.1875 C 2014.277344 3577.238281 2036.070312 3567.863281 2075.316406 3564.007812 C 2114.777344 3558.386719 2173.203125 3558.546875 2189.652344 3547.308594 C 2174.660156 3545.632812 2158.832031 3544.59375 2142.539062 3544.074219 C 2126.246094 3543.742188 2109.492188 3544.335938 2092.675781 3545.546875 C 2059.082031 3548.21875 2025.238281 3550.5 1994.847656 3554.460938 C 1942.257812 3559.703125 1900.097656 3564.007812 1890.652344 3559.3125 L 1894.304688 3564.441406 C 1894.304688 3564.441406 1880.554688 3565.882812 1859.855469 3566.648438 C 1839.15625 3567.589844 1811.394531 3569.046875 1783.460938 3569.855469 C 1755.46875 3569.699219 1727.492188 3569.554688 1706.503906 3569.421875 C 1695.929688 3569.394531 1687.136719 3569.164062 1681.011719 3568.714844 C 1674.871094 3568.398438 1671.363281 3568.195312 1671.363281 3568.195312 L 1678.410156 3541.214844 C 1860.074219 3558.429688 2044.1875 3543.367188 2221.515625 3496.078125 C 2221.574219 3496.25 2221.589844 3496.441406 2221.648438 3496.613281 C 2221.648438 3496.441406 2221.648438 3496.238281 2221.648438 3496.035156 C 2238.664062 3491.5 2255.605469 3486.617188 2272.492188 3481.476562 C 2272.96875 3490.011719 2273.097656 3499.113281 2273.253906 3508.269531 C 2273.964844 3555.296875 2275.640625 3604.839844 2342.425781 3577.871094 C 2302.535156 3573.886719 2291.699219 3546.097656 2296.234375 3518.957031 C 2300.828125 3491.5 2320.617188 3465.921875 2345.921875 3461.804688 C 2344.738281 3461.097656 2343.480469 3459.882812 2342.167969 3458.4375 C 2351.671875 3455.042969 2361.160156 3451.605469 2370.621094 3448.011719 C 2360.339844 3468.765625 2367.359375 3481.449219 2383.074219 3485.894531 C 2396.144531 3489.636719 2415.152344 3487.789062 2433.207031 3479.945312 C 2454.308594 3485.707031 2447.480469 3491.574219 2432.125 3497.828125 C 2415.601562 3504.382812 2389.863281 3511.445312 2380.921875 3520.460938 C 2470.703125 3531.695312 2434.78125 3497.148438 2457.242188 3472 C 2473.261719 3474.6875 2493.46875 3473.445312 2515.410156 3470.066406 C 2538.085938 3466.125 2562.726562 3460.664062 2586.039062 3455.941406 C 2605.148438 3451.449219 2623.363281 3447.996094 2639.324219 3447.101562 C 2633.183594 3453.773438 2630.742188 3465.835938 2633.257812 3486.5625 C 2633.257812 3486.5625 2654.375 3480.753906 2675.503906 3474.949219 C 2686.078125 3472 2696.652344 3469.054688 2704.582031 3466.832031 C 2712.523438 3464.636719 2717.769531 3463.019531 2717.769531 3463.03125 C 2729.179688 3498.621094 2734.726562 3516.429688 2680.589844 3530.035156 C 2698.066406 3540.058594 2738.421875 3503.90625 2761.476562 3486.429688 L 2741.007812 3490.1875 C 2748.417969 3475.539062 2766.71875 3458.929688 2781.464844 3443.867188 C 2743.851562 3455.738281 2703.394531 3445.351562 2674.320312 3440.933594 C 2667.894531 3440.082031 2662.058594 3439.691406 2656.871094 3440.023438 C 2672.050781 3426.53125 2677.597656 3414.890625 2679.417969 3404.015625 C 2681.355469 3391.101562 2677.65625 3377.988281 2675.300781 3359.53125 C 2689.617188 3369.972656 2709.882812 3370.808594 2729.65625 3370.21875 C 2749.457031 3369.683594 2769.5625 3368.902344 2784.800781 3378.59375 C 2801.425781 3353.289062 2818.714844 3335.667969 2837.347656 3322.265625 C 2856.011719 3308.992188 2876.117188 3300.152344 2895.226562 3289.765625 C 2914.507812 3279.671875 2934.125 3269.617188 2951.515625 3254.65625 C 2956.699219 3249.933594 2961.652344 3244.617188 2966.449219 3238.953125 C 2966.332031 3238.839844 2966.59375 3238.492188 2967.285156 3237.914062 C 2977.800781 3225.277344 2987.277344 3210.3125 2994.730469 3191.421875 C 3002.761719 3192.589844 3007.355469 3194.714844 3009.578125 3197.402344 C 3012.800781 3193.964844 3014.9375 3191.679688 3014.9375 3191.679688 L 3005.289062 3191.089844 C 3011.269531 3168.09375 3023.847656 3146.183594 3040.472656 3125.761719 C 3046.25 3118.597656 3052.460938 3111.492188 3058.847656 3104.457031 C 3051.292969 3108.6875 3043.609375 3112.589844 3035.664062 3115.894531 C 2996.722656 3131.464844 2957.679688 3140.480469 2919.074219 3144.769531 C 2895.644531 3147.773438 2873.617188 3150.128906 2852.976562 3152.785156 C 2871.292969 3136.246094 2889.261719 3119.144531 2906.941406 3101.582031 C 2917.554688 3109.019531 2927.839844 3116.214844 2927.839844 3116.214844 C 2944.507812 3097.175781 2958.722656 3077.433594 2971.546875 3057.167969 C 2983.839844 3037.453125 2994.125 3016.175781 3004.539062 2995.046875 C 3038.507812 2954.359375 3070.039062 2912.328125 3099.144531 2869.140625 L 3105.917969 2873.921875 C 3105.195312 2868.851562 3115.132812 2855.796875 3131.253906 2835.300781 C 3139.414062 2825.175781 3149.394531 2813.460938 3160.820312 2800.433594 C 3171.796875 2787.03125 3184.03125 2772.082031 3197.277344 2755.90625 C 3197.683594 2755.414062 3198.113281 2754.851562 3198.503906 2754.359375 C 3311.992188 2632.238281 3405.875 2491.675781 3475.0625 2337.574219 C 3475.554688 2337.242188 3476.03125 2336.910156 3476.550781 2336.578125 C 3484.496094 2331.046875 3492.265625 2325.167969 3497.320312 2326.410156 C 3502.261719 2327.625 3504.671875 2336.074219 3499.226562 2358.621094 C 3499.921875 2371.632812 3507.359375 2338.253906 3508.167969 2299.761719 C 3508.90625 2286.1875 3508.730469 2272.074219 3507.605469 2259.234375 C 3512.097656 2247.535156 3516.429688 2235.761719 3520.648438 2223.933594 C 3528.273438 2240.140625 3543.875 2249.210938 3573.484375 2247.03125 C 3575.246094 2203.742188 3573.28125 2168.140625 3561.597656 2154.621094 L 3572.082031 2162.492188 C 3572.082031 2162.492188 3565.914062 2141.980469 3554.980469 2114.496094 C 3561.742188 2089.753906 3567.894531 2064.75 3573.414062 2039.519531 C 3586.265625 2062.324219 3601.503906 2076.046875 3623.777344 2064.390625 C 3623.777344 2064.390625 3614.289062 2044.371094 3604.785156 2024.351562 C 3600.175781 2014.460938 3594.960938 2004.652344 3591.035156 1997.34375 C 3587.132812 1990.050781 3584.535156 1985.195312 3584.535156 1985.195312 C 3629.527344 2012.464844 3617.277344 1908.398438 3651.046875 1927.828125 C 3651.046875 1927.828125 3650.542969 1924.417969 3649.242188 1918.46875 C 3647.984375 1912.53125 3646.210938 1904.054688 3644.070312 1893.882812 C 3639.449219 1873.589844 3634.742188 1846.539062 3627.359375 1819.917969 C 3620.601562 1794.542969 3614.257812 1769.480469 3608.597656 1750.15625 C 3608.929688 1737.246094 3609.101562 1724.304688 3609.117188 1711.316406 L 3640.792969 1702.710938 C 3640.792969 1702.710938 3637.269531 1716.445312 3633.746094 1730.167969 C 3631.953125 1736.96875 3630.160156 1743.757812 3628.820312 1748.855469 C 3627.316406 1753.957031 3626.320312 1757.335938 3626.320312 1757.335938 C 3652.925781 1769.726562 3664.855469 1769.800781 3668.480469 1761.105469 C 3672.308594 1752.582031 3667.195312 1735.480469 3659.640625 1714.824219 Z M 535.808594 1068.722656 C 540.75 1054.132812 545.617188 1040.050781 549.097656 1025.824219 C 549.921875 1022.648438 550.585938 1019.511719 551.335938 1016.351562 C 563.699219 1008.074219 575.082031 1011.828125 584.511719 1040.628906 C 584.511719 1040.628906 566.457031 1057.195312 548.417969 1073.792969 C 538.941406 1083.367188 529.570312 1092.828125 522.9375 1099.53125 C 527.878906 1089.246094 532.296875 1078.976562 535.808594 1068.722656 Z M 560.8125 973.914062 C 563.164062 963.875 565.519531 953.839844 568.003906 944.234375 C 569.9375 936.792969 572.035156 929.585938 574.300781 922.539062 C 578 946.5 571.976562 962.15625 560.8125 973.914062 Z M 645.222656 995.046875 C 652.167969 994.308594 660.199219 995.59375 669.6875 999.523438 C 660.863281 1009.5625 652.199219 1019.6875 643.691406 1029.882812 C 643.761719 1023.628906 643.90625 1017.257812 644.296875 1010.875 C 644.613281 1005.5625 644.917969 1000.257812 645.222656 995.046875 Z M 431.539062 1342.039062 C 434.023438 1323.636719 433.71875 1302.996094 432.605469 1281.621094 C 431.941406 1254.554688 429.515625 1226.257812 428.476562 1200.792969 C 428.433594 1197.617188 428.519531 1194.640625 428.535156 1191.566406 C 432.261719 1183.203125 436.332031 1175.953125 440.621094 1170.722656 C 436.5625 1171.992188 432.722656 1173.785156 428.980469 1175.808594 C 429.730469 1161.132812 431.421875 1148.175781 434.800781 1138.558594 C 437.546875 1146.949219 449.621094 1129.90625 464.367188 1111.054688 C 478.929688 1116.199219 493.878906 1095.226562 508.929688 1071.046875 C 515.195312 1072.085938 518.578125 1081.792969 517.074219 1105.4375 C 515.039062 1107.488281 513.839844 1108.703125 513.839844 1108.703125 C 514.894531 1108.6875 515.832031 1108.570312 516.84375 1108.527344 C 516.742188 1109.871094 516.683594 1111.085938 516.539062 1112.515625 C 517.292969 1111.15625 517.824219 1109.800781 518.546875 1108.425781 C 543.839844 1106.984375 560.132812 1097.984375 572.667969 1085.851562 C 586.101562 1073.070312 594.480469 1056.113281 602.324219 1040.039062 C 609.300781 1025.722656 616.304688 1012.4375 625.707031 1004.015625 C 625.347656 1005.054688 625.015625 1005.980469 624.636719 1007.035156 C 620.421875 1019.46875 616.679688 1033.0625 612.578125 1046.421875 C 608.953125 1058.582031 605.355469 1070.65625 601.917969 1082.183594 C 595.535156 1090.546875 589.191406 1098.9375 583.011719 1107.417969 C 581.207031 1108.007812 579.632812 1108.398438 578.402344 1108.425781 C 578.316406 1110.246094 578.578125 1111.734375 578.921875 1113.121094 C 524.613281 1188.125 477.945312 1266.929688 438.875 1348.480469 C 436.1875 1346.585938 433.804688 1344.378906 431.539062 1342.039062 Z M 3577.789062 1367.734375 C 3595.699219 1397.6875 3606.082031 1431.125 3585.746094 1441.148438 C 3580.300781 1410.210938 3573.875 1379.632812 3566.59375 1349.375 C 3570.363281 1355.269531 3574.164062 1361.378906 3577.789062 1367.734375 Z M 2647.394531 284.464844 C 2646.429688 284.074219 2645.460938 283.671875 2644.492188 283.28125 C 2644.910156 283.195312 2645.316406 283.167969 2645.75 283.035156 C 2646.3125 283.527344 2646.847656 283.988281 2647.394531 284.464844 Z M 2609.222656 252.777344 C 2607.359375 251.375 2605.507812 250.03125 2603.644531 248.617188 C 2603.644531 248.617188 2605.957031 250.4375 2609.609375 253.339844 C 2610.824219 255.101562 2612.039062 256.921875 2613.234375 258.785156 C 2617.152344 264.835938 2621.035156 271.0625 2625.441406 275.800781 C 2607.402344 268.851562 2589.246094 262.195312 2570.886719 255.910156 C 2588.304688 230.777344 2599.328125 238.765625 2609.222656 252.777344 Z M 1886.53125 96.324219 C 1881.867188 97.132812 1879.152344 97.609375 1879.152344 97.609375 C 1877.160156 95.167969 1876.652344 92.4375 1876.769531 89.808594 C 1880.207031 92.105469 1883.570312 94.359375 1886.53125 96.324219 Z M 1852.664062 74.082031 C 1852.664062 74.082031 1856.820312 76.796875 1862.570312 80.539062 C 1859.105469 80.828125 1855.652344 81.1875 1852.183594 81.433594 C 1852.402344 79.09375 1852.574219 76.679688 1852.664062 74.082031 Z M 1028.980469 283.730469 C 1025.542969 286.546875 1022.238281 289.347656 1018.898438 292.148438 C 1018.105469 291.339844 1017.542969 290.605469 1016.660156 289.765625 C 1020.863281 287.324219 1024.953125 285.40625 1028.980469 283.730469 Z M 931.210938 358.589844 C 941.121094 355.527344 950.941406 352.871094 960.402344 350.34375 C 951.621094 361.753906 946.015625 371.949219 945.410156 380.199219 L 943.5625 367.226562 C 943.5625 367.226562 932.800781 387.160156 920.667969 415.65625 C 908.347656 443.980469 896.71875 482.761719 891.503906 517.613281 C 899.59375 494.910156 915.828125 473.804688 934.027344 454.292969 C 952.976562 435.558594 973.820312 418.359375 990.617188 401.878906 C 1017.28125 377.554688 1034.671875 354.460938 1020.953125 328.433594 C 1031.394531 320.820312 1034.007812 311.300781 1024.519531 298.578125 C 1040.394531 293.667969 1052.929688 286.921875 1063.894531 277.632812 C 1081.339844 279.09375 1095.496094 287.542969 1104.839844 298.417969 C 1098.761719 303.460938 1092.277344 309.164062 1085.832031 315.347656 C 1057.261719 340.96875 1030.5 374.808594 1036.867188 388.675781 C 1049.898438 386.121094 1061.988281 363.976562 1077.570312 348.738281 C 1092.824219 333.140625 1109.882812 322.582031 1128.746094 341.242188 C 1170.042969 318.003906 1153.90625 315.476562 1134.871094 311.792969 C 1136.273438 310.855469 1137.515625 310.015625 1139.046875 309.003906 C 1152.621094 300.367188 1170.734375 288.855469 1188.847656 277.359375 C 1206.988281 265.542969 1225.722656 254.886719 1239.890625 246.96875 C 1254.046875 238.953125 1263.507812 233.609375 1263.507812 233.609375 C 1288.265625 249.425781 1270.890625 313.121094 1251.679688 315.128906 C 1236.109375 319.652344 1219.453125 328.851562 1202.007812 339.105469 C 1184.585938 349.460938 1166.113281 360.136719 1147.667969 370.417969 C 1110.792969 391.234375 1072.054688 404.96875 1031.726562 394.050781 C 1014.929688 420.597656 1032.925781 428.527344 1042.257812 437.988281 C 1051.859375 447.734375 1052.410156 457.542969 1005.523438 489.925781 C 937.972656 500.46875 874.503906 530.828125 816.714844 568.5 C 818.824219 546.847656 831.433594 518.164062 842.292969 490.15625 C 858.875 449.585938 872.625 411.007812 837.628906 400.058594 C 837.628906 400.058594 830.191406 420.929688 822.75 441.800781 C 821.292969 445.800781 819.933594 449.832031 818.648438 453.773438 C 801.15625 404.40625 868.078125 376.050781 931.210938 358.589844 Z M 768.140625 437.699219 C 775.636719 430.246094 782.019531 424.179688 786.65625 420.175781 C 791.21875 416.0625 793.847656 413.722656 793.847656 413.722656 L 818.160156 455.230469 C 816.351562 460.835938 814.707031 466.152344 813.378906 470.613281 C 810.980469 478.53125 809.390625 483.800781 809.390625 483.800781 C 797.460938 435.125 738.082031 507.242188 723.695312 481.664062 C 740.03125 465.488281 755.789062 449.886719 768.140625 437.699219 Z M 638.878906 574 C 638.878906 574 647.589844 563.253906 661.671875 548.089844 C 674.613281 533.921875 691.570312 515.128906 709.238281 496.296875 C 707.214844 499.386719 705.105469 502.621094 702.722656 506.261719 C 691.644531 523.882812 675.84375 546.34375 662.25 570.375 C 648.414062 594.222656 634.402344 617.691406 624.636719 635.734375 C 615.164062 653.933594 608.835938 666.066406 608.835938 666.066406 L 577.941406 648.371094 C 583.113281 642.03125 588.125 635.921875 592.933594 630.101562 C 593.382812 629.839844 593.828125 629.582031 594.277344 629.304688 C 600.34375 625.765625 606.425781 622.230469 610.972656 619.570312 C 615.640625 617.027344 618.746094 615.339844 618.746094 615.339844 C 617.257812 611.28125 615.828125 607.769531 614.425781 604.507812 C 628.710938 587.96875 639.53125 576.917969 645.121094 575.042969 Z M 341.769531 1407.164062 C 369.53125 1322.753906 362.335938 1437.554688 395.039062 1406.007812 C 402.75 1402.050781 408.746094 1396.820312 413.597656 1390.625 C 414.015625 1394.453125 414.21875 1398.410156 414.175781 1402.5 C 402.535156 1429.421875 391.789062 1456.648438 381.765625 1484.0625 C 371.449219 1488.625 362.308594 1484.898438 355.257812 1475.019531 C 350.363281 1468.171875 346.476562 1458.453125 343.878906 1446.769531 C 341.449219 1435.140625 340.945312 1421.636719 341.769531 1407.164062 Z M 1404.742188 3490.011719 C 1411.890625 3492.035156 1419.039062 3494.085938 1426.21875 3496.003906 C 1426.21875 3496.859375 1426.117188 3497.523438 1426.148438 3498.417969 C 1418 3496.265625 1410.9375 3493.390625 1404.742188 3490.011719 Z M 1566.484375 3526.582031 C 1599.964844 3532.257812 1633.605469 3536.722656 1667.332031 3540.171875 C 1643.804688 3556.074219 1605.078125 3545.113281 1566.484375 3526.582031 Z M 2430.738281 3476.59375 C 2426.304688 3477.375 2421.96875 3477.90625 2417.882812 3477.9375 C 2408.535156 3477.734375 2400.289062 3475.886719 2393.515625 3472.824219 C 2381.324219 3467.335938 2374.277344 3457.832031 2373.394531 3447.054688 C 2391.925781 3439.980469 2410.355469 3432.511719 2428.65625 3424.683594 C 2425.625 3429.304688 2423.703125 3436.179688 2423.457031 3446.433594 C 2426.1875 3457.324219 2433.335938 3464.375 2443.605469 3468.578125 C 2438.96875 3470.511719 2434.652344 3473.125 2430.738281 3476.59375 Z M 2468.089844 3419.902344 C 2461.039062 3418.386719 2453.890625 3416.738281 2447.421875 3416.507812 C 2465.085938 3408.679688 2482.648438 3400.535156 2500.066406 3391.996094 C 2506.277344 3426.199219 2488.050781 3424.292969 2468.089844 3419.902344 Z M 2468.089844 3419.902344 " fill-opacity="1" fill-rule="nonzero"/><path fill="#ff4a3f" d="M 2221.648438 3496.742188 C 2221.648438 3503.386719 2221.648438 3507.921875 2221.648438 3507.921875 C 2223.003906 3503.734375 2222.757812 3500.0625 2221.648438 3496.742188 Z M 2221.648438 3496.742188 " fill-opacity="1" fill-rule="nonzero"/><g fill="#ffffff" fill-opacity="1"><g transform="translate(852.39643, 3120.070281)"><g><path d="M 163.964844 -2295.515625 L 163.964844 0 L 491.898438 0 L 491.898438 -2295.515625 L 1639.65625 -2295.515625 L 1639.65625 0 L 1967.585938 0 L 1967.585938 -2295.515625 C 1967.585938 -2515.230469 1859.367188 -2623.449219 1639.65625 -2623.449219 L 491.898438 -2623.449219 C 275.460938 -2623.449219 163.964844 -2515.230469 163.964844 -2295.515625 Z M 819.828125 -655.863281 L 1311.722656 -655.863281 L 1311.722656 -983.792969 L 819.828125 -983.792969 Z M 819.828125 -655.863281 "/></g></g></g><g fill="#ffffff" fill-opacity="1"><g transform="translate(1426.886081, 1934.029615)"><g><path d="M 1218.652344 -460.777344 C 1181.515625 -460.777344 1141.628906 -440.144531 1127.871094 -396.132812 C 1067.351562 -231.078125 991.703125 -163.679688 927.054688 -163.679688 C 899.546875 -163.679688 885.792969 -180.183594 885.792969 -200.816406 C 885.792969 -207.695312 885.792969 -214.570312 888.542969 -220.074219 L 1005.457031 -540.554688 C 1013.710938 -566.6875 1019.210938 -594.195312 1019.210938 -617.578125 C 1019.210938 -734.492188 916.050781 -807.390625 790.886719 -807.390625 C 741.371094 -807.390625 669.847656 -795.011719 606.574219 -744.121094 C 577.691406 -777.132812 532.300781 -807.390625 452.523438 -807.390625 C 396.132812 -807.390625 363.121094 -790.886719 338.363281 -775.757812 C 323.230469 -796.386719 292.972656 -807.390625 262.710938 -807.390625 C 220.074219 -807.390625 176.058594 -786.761719 159.550781 -746.871094 L -60.519531 -112.789062 C -64.644531 -100.40625 -66.023438 -89.40625 -66.023438 -79.777344 C -66.023438 -28.882812 -22.007812 0 26.132812 0 C 72.898438 0 119.664062 -27.507812 138.921875 -82.527344 L 302.601562 -552.933594 C 331.484375 -612.078125 375.5 -645.089844 416.761719 -645.089844 C 444.273438 -645.089844 463.527344 -629.957031 463.527344 -605.199219 C 463.527344 -598.324219 462.152344 -588.695312 458.027344 -579.066406 L 297.097656 -132.042969 C 290.222656 -114.164062 286.09375 -96.28125 286.09375 -81.152344 C 286.09375 -28.882812 327.359375 0 374.125 0 C 419.511719 0 469.03125 -27.507812 489.660156 -86.652344 L 647.839844 -533.675781 C 672.597656 -602.449219 724.863281 -645.089844 770.253906 -645.089844 C 795.011719 -645.089844 814.269531 -628.582031 814.269531 -602.449219 C 814.269531 -594.195312 812.894531 -584.566406 808.765625 -572.1875 L 704.234375 -287.46875 C 693.230469 -255.835938 687.726562 -224.199219 687.726562 -195.316406 C 687.726562 -70.148438 790.886719 0 911.925781 0 C 1048.097656 0 1199.394531 -88.027344 1294.300781 -363.121094 C 1297.054688 -372.75 1299.804688 -382.375 1299.804688 -392.003906 C 1299.804688 -436.019531 1259.917969 -460.777344 1218.652344 -460.777344 Z M 1218.652344 -460.777344 "/></g></g></g></svg>